<svg xmlns="http://www.w3.org/2000/svg" viewBox="0 0 88.34 88.34"><defs><style>.cls-1,.cls-3{fill:#dc0d15;}.cls-2{fill:#fff;}.cls-3{fill-rule:evenodd;}</style></defs><g id="katman_2" data-name="katman 2"><g id="Layer_1" data-name="Layer 1"><circle class="cls-1" cx="44.17" cy="44.02" r="27.18"/><path class="cls-2" d="M54.1,64a1.26,1.26,0,0,1-.14.18,11.45,11.45,0,0,1-10.13,2.13A22,22,0,0,1,38.6,64.1a.72.72,0,0,0,.29.43,7.37,7.37,0,0,0,2.64,1.6,38.23,38.23,0,0,0,4.65,1.44,5.79,5.79,0,0,1-1.28.48,10.55,10.55,0,0,1-4.11.22,25.85,25.85,0,0,1-3.69-.92,27.27,27.27,0,0,1-4.9-2.12,21.4,21.4,0,0,1-2.92-2A23,23,0,0,1,25.85,60,24.81,24.81,0,0,1,22,53.91a27.78,27.78,0,0,1-2-6.73,22,22,0,0,1-.27-4A23.11,23.11,0,0,1,21,36.45a25.87,25.87,0,0,1,4.26-8,21.59,21.59,0,0,1,2.69-2.88A23.47,23.47,0,0,1,30,23.94c.59-.41,1.22-.78,1.84-1.16a.27.27,0,0,1,.24,0c-.44.45-.87.91-1.32,1.35a24.71,24.71,0,0,0-3.11,3.51,25.36,25.36,0,0,0-3.5,7,19.41,19.41,0,0,0-.71,3.55,18.88,18.88,0,0,0,1.63,9.69,12.73,12.73,0,0,0,1.08,1.9,28.49,28.49,0,0,0,3.07,3.85,4.59,4.59,0,0,0,1.94,1.24c.73.25,1.47.49,2.21.72a19,19,0,0,1,4,1.87c1,.62,2,1.28,3.07,1.93s2.23,1.45,3.38,2.13a17.37,17.37,0,0,0,5.42,2.13c.7.13,1.42.18,2.13.24S53.16,63.9,54.1,64Z"/><path class="cls-2" d="M56.8,65.13a.67.67,0,0,1,.11-.18c.64-.75,1.27-1.52,1.93-2.26a26.12,26.12,0,0,0,3.92-5.64A21,21,0,0,0,65,49.72a18.71,18.71,0,0,0-.93-7.89,17.69,17.69,0,0,0-3.48-6.2A13.45,13.45,0,0,0,58,33.22a4.37,4.37,0,0,0-1.32-.54A19.35,19.35,0,0,1,52,31c-1.53-.85-3.07-1.7-4.55-2.63a40.35,40.35,0,0,0-5.67-3,15.3,15.3,0,0,0-4.14-1.17c-.75-.08-1.51-.13-2.27-.19l-.61-.06a2,2,0,0,1,.66-.79,7.6,7.6,0,0,1,2.11-1.06,11.12,11.12,0,0,1,4.42-.71,16.13,16.13,0,0,1,3.51.67,25,25,0,0,1,3.92,1.56s.06,0,.16,0a13.82,13.82,0,0,0-7.57-3l.39-.21a8.36,8.36,0,0,1,4.55-.59c.94.12,1.88.22,2.8.42a20.5,20.5,0,0,1,7.23,3.07,28.85,28.85,0,0,1,5,4.08,23.56,23.56,0,0,1,4,5.59,24.21,24.21,0,0,1,1.54,3.73,21.58,21.58,0,0,1,1,5.34c.05,1.1.11,2.2.07,3.3a25.84,25.84,0,0,1-.68,5.1,23.76,23.76,0,0,1-1.44,4.21,21.93,21.93,0,0,1-2.83,4.63,24.21,24.21,0,0,1-4.81,4.62L57.23,65c-.12.08-.26.15-.39.22Z"/><path class="cls-2" d="M61.52,55.32l-.36.36C60,57,58.77,58.32,57.54,59.6a25.48,25.48,0,0,1-2.33,2.2,5.88,5.88,0,0,1-4.16,1.13,13.61,13.61,0,0,1-1.43-.17,3.25,3.25,0,0,1-.46-.11c.57-.27,1.09-.48,1.58-.73A13.42,13.42,0,0,0,54,59.47c.91-.93,1.85-1.83,2.79-2.73a5.53,5.53,0,0,1,2.09-1.26A5.29,5.29,0,0,1,61.52,55.32Z"/><path class="cls-2" d="M38.79,25.29c-.28.14-.5.25-.72.34a12,12,0,0,0-3.25,2.29c-.77.7-1.51,1.43-2.27,2.14-.37.35-.74.7-1.13,1a5.86,5.86,0,0,1-3.11,1.34l-.54.12-.62.07a3.88,3.88,0,0,1,.21-.34c.95-1.17,1.89-2.34,2.86-3.49a13.2,13.2,0,0,1,3.15-2.86,7.46,7.46,0,0,1,3-1,5.76,5.76,0,0,1,2.07.16A3.72,3.72,0,0,1,38.79,25.29Z"/><path class="cls-2" d="M45.33,61.1l.94-.67c1.35-1,2.7-2,4-2.94.44-.32.9-.61,1.36-.9A8,8,0,0,1,55,55.47h.28c.39,0,.39,0,.55.45l-.56.51c-1.08,1-2.14,2-3.23,2.93a21.64,21.64,0,0,1-1.83,1.49,4.59,4.59,0,0,1-3.66.79,9.72,9.72,0,0,1-1.22-.41Z"/><path class="cls-2" d="M32.57,32.18c.27-.34.53-.69.82-1,.77-.83,1.53-1.66,2.34-2.46a10.23,10.23,0,0,1,3.21-2.17,4.47,4.47,0,0,1,2.63-.27,5.62,5.62,0,0,1,1.75.61L43,27a8.75,8.75,0,0,0-2.37,1.13c-1,.66-1.89,1.4-2.8,2.15A8.46,8.46,0,0,1,34,32.05c-.45.09-.91.15-1.37.22Z"/><path class="cls-2" d="M56.64,45.23a.62.62,0,0,0,.5-.59c0-.34,0-.69,0-1s0-.66-.07-1a.63.63,0,0,0-.53-.56l-1.74-.29a.66.66,0,0,1-.49-.41l-.62-1.73a.63.63,0,0,1,.12-.63L55,37.66A.65.65,0,0,0,55,36.9a14.17,14.17,0,0,0-1.26-1.63.65.65,0,0,0-.75-.13l-1.58.79a.64.64,0,0,1-.64,0l-1.52-1a.65.65,0,0,1-.27-.59l.15-1.75a.62.62,0,0,0-.4-.65,12.91,12.91,0,0,0-1.89-.56.62.62,0,0,0-.68.33l-.82,1.56a.62.62,0,0,1-.55.34L43,33.59a.68.68,0,0,1-.57-.31l-.89-1.52a.63.63,0,0,0-.7-.3,12.5,12.5,0,0,0-2,.69.64.64,0,0,0-.36.67l.26,1.74a.65.65,0,0,1-.24.6l-1.46,1.11a.64.64,0,0,1-.64.08l-1.62-.69a.62.62,0,0,0-.74.17,13.46,13.46,0,0,0-1.17,1.7.62.62,0,0,0,.11.75l1.23,1.26a.62.62,0,0,1,.15.62l-.52,1.76a.65.65,0,0,1-.47.44l-1.72.39a.62.62,0,0,0-.49.59c0,.36,0,.72,0,1.08s0,.65.07,1a.64.64,0,0,0,.53.55l1.73.29a.65.65,0,0,1,.5.42l.61,1.73a.63.63,0,0,1-.12.63l-1.17,1.32a.65.65,0,0,0-.06.76,13.46,13.46,0,0,0,1.26,1.64.62.62,0,0,0,.75.13l1.58-.78a.64.64,0,0,1,.64,0l1.51,1a.65.65,0,0,1,.28.59l-.17,1.75a.65.65,0,0,0,.4.65,13.25,13.25,0,0,0,2,.58.62.62,0,0,0,.68-.33L43,54.83a.65.65,0,0,1,.55-.35l1.84,0a.66.66,0,0,1,.56.31l.9,1.52a.62.62,0,0,0,.7.29,12.76,12.76,0,0,0,1.94-.69.64.64,0,0,0,.36-.67l-.26-1.74a.65.65,0,0,1,.24-.6l1.45-1.13a.64.64,0,0,1,.64-.08l1.62.7a.63.63,0,0,0,.74-.18,13.07,13.07,0,0,0,1.16-1.7.62.62,0,0,0-.1-.75L54.1,48.45a.64.64,0,0,1-.16-.62l.52-1.77a.62.62,0,0,1,.47-.44Zm-7.88,4a7,7,0,1,1,.63-9.81A6.94,6.94,0,0,1,48.76,49.24Z"/><path class="cls-2" d="M46.05,46.07a3.88,3.88,0,0,1-1.38,1.29,3.74,3.74,0,0,1-1.66.45h-.19A3.79,3.79,0,0,1,39,44a3.83,3.83,0,0,1,2.24-3.44,4.13,4.13,0,0,1,.45-.17,3.93,3.93,0,0,1,1.14-.17,3.81,3.81,0,0,1,3.2,1.8,3,3,0,0,0-2.25-1,3.14,3.14,0,0,0-1.27.27,2.56,2.56,0,0,0-.4.22,3.06,3.06,0,0,0-1.3,1.78,3.1,3.1,0,0,0-.1.76,3.06,3.06,0,0,0,3,3.06h0a2.78,2.78,0,0,0,.58-.06,3,3,0,0,0,1.69-.94"/><polygon class="cls-2" points="48.7 44.35 49.29 45.18 47.98 44.74 47.16 45.85 47.16 44.47 45.85 44.04 47.17 43.62 47.18 42.24 47.53 42.72 47.99 43.36 49.3 42.94 48.48 44.05 48.7 44.35"/><path class="cls-1" d="M75,74.88H73.38a.35.35,0,0,1-.2-.61l.45-.39A2.07,2.07,0,0,1,75,73.36h1.58a.35.35,0,0,1,.2.62l-.45.39a2.11,2.11,0,0,1-1.37.51"/><path class="cls-1" d="M77,72.66l-1.58.11a.35.35,0,0,1-.24-.6l.42-.42A2.1,2.1,0,0,1,77,71.14L78.54,71a.35.35,0,0,1,.24.6l-.42.42a2.08,2.08,0,0,1-1.33.61"/><path class="cls-1" d="M78.94,70.3l-1.57.22a.35.35,0,0,1-.28-.58l.39-.45a2.08,2.08,0,0,1,1.28-.7l1.57-.22a.35.35,0,0,1,.29.58l-.4.45a2.08,2.08,0,0,1-1.28.7"/><path class="cls-1" d="M80.68,67.82l-1.55.32a.34.34,0,0,1-.32-.55l.36-.48a2.06,2.06,0,0,1,1.23-.79L81.94,66a.35.35,0,0,1,.33.56L81.9,67a2.13,2.13,0,0,1-1.22.79"/><path class="cls-1" d="M82.24,65.21l-1.52.44a.36.36,0,0,1-.37-.54l.33-.5a2.07,2.07,0,0,1,1.17-.87l1.52-.44a.35.35,0,0,1,.37.54l-.33.5a2,2,0,0,1-1.17.87"/><path class="cls-1" d="M83.61,62.5,82.13,63a.34.34,0,0,1-.4-.5L82,62a2.11,2.11,0,0,1,1.11-.95l1.48-.54A.35.35,0,0,1,85,61l-.29.52a2,2,0,0,1-1.11,1"/><path class="cls-1" d="M84.8,59.71l-1.45.64a.35.35,0,0,1-.43-.48l.25-.54a2.17,2.17,0,0,1,1-1l1.45-.64a.35.35,0,0,1,.43.48l-.26.54a2.07,2.07,0,0,1-1,1"/><path class="cls-1" d="M85.78,56.84l-1.4.74a.35.35,0,0,1-.46-.44l.22-.56a2,2,0,0,1,1-1.1l1.4-.75a.35.35,0,0,1,.46.45l-.21.56a2.1,2.1,0,0,1-1,1.1"/><path class="cls-1" d="M86.57,53.91l-1.35.84a.35.35,0,0,1-.49-.42l.17-.57a2.12,2.12,0,0,1,.89-1.16l1.34-.84a.35.35,0,0,1,.5.41l-.18.57a2.05,2.05,0,0,1-.88,1.17"/><path class="cls-1" d="M87.14,50.93l-1.28.93a.35.35,0,0,1-.52-.38l.13-.58a2.12,2.12,0,0,1,.81-1.23l1.28-.93a.35.35,0,0,1,.52.38l-.14.59a2.05,2.05,0,0,1-.8,1.22"/><path class="cls-1" d="M87.51,47.92l-1.21,1a.35.35,0,0,1-.55-.34l.09-.59a2,2,0,0,1,.72-1.28l1.21-1a.35.35,0,0,1,.55.34l-.1.59a2.11,2.11,0,0,1-.71,1.28"/><path class="cls-1" d="M87.66,44.88,86.53,46a.36.36,0,0,1-.58-.3l.06-.6a2,2,0,0,1,.62-1.32l1.14-1.1a.35.35,0,0,1,.57.31l0,.59a2.09,2.09,0,0,1-.63,1.32"/><path class="cls-1" d="M87.61,41.85,86.55,43a.35.35,0,0,1-.59-.26v-.6a2.1,2.1,0,0,1,.53-1.36l1.06-1.17a.35.35,0,0,1,.59.26v.6a2.1,2.1,0,0,1-.53,1.36"/><path class="cls-1" d="M87.34,38.83l-1,1.24a.35.35,0,0,1-.61-.22l0-.6a2.08,2.08,0,0,1,.43-1.39l1-1.25a.34.34,0,0,1,.6.22l0,.6a2.07,2.07,0,0,1-.43,1.4"/><path class="cls-1" d="M86.86,35.83,86,37.14a.36.36,0,0,1-.63-.18l-.07-.59A2.07,2.07,0,0,1,85.62,35l.89-1.31a.35.35,0,0,1,.62.17l.07.6a2.07,2.07,0,0,1-.34,1.42"/><path class="cls-1" d="M86.17,32.87l-.78,1.37a.35.35,0,0,1-.64-.13l-.11-.59a2.06,2.06,0,0,1,.24-1.44l.78-1.37a.36.36,0,0,1,.64.13l.11.59a2.06,2.06,0,0,1-.24,1.44"/><path class="cls-1" d="M85.29,30l-.7,1.42A.35.35,0,0,1,84,31.3l-.15-.58a2.07,2.07,0,0,1,.13-1.45l.69-1.42a.35.35,0,0,1,.64.08l.16.59A2.13,2.13,0,0,1,85.29,30"/><path class="cls-1" d="M84.2,27.14l-.6,1.47a.35.35,0,0,1-.64-.05l-.2-.57a2.15,2.15,0,0,1,0-1.46l.6-1.46a.35.35,0,0,1,.64,0l.2.57a2.15,2.15,0,0,1,0,1.46"/><path class="cls-1" d="M82.91,24.39l-.49,1.5a.35.35,0,0,1-.65,0l-.23-.56a2.1,2.1,0,0,1-.07-1.46l.49-1.5a.34.34,0,0,1,.64,0l.24.55a2.1,2.1,0,0,1,.07,1.46"/><path class="cls-1" d="M81.43,21.74l-.38,1.53a.34.34,0,0,1-.64.05l-.28-.54A2.08,2.08,0,0,1,80,21.33l.38-1.53a.35.35,0,0,1,.65-.05l.27.54a2.09,2.09,0,0,1,.17,1.45"/><path class="cls-1" d="M79.78,19.19l-.28,1.56a.35.35,0,0,1-.64.09l-.31-.51a2.09,2.09,0,0,1-.27-1.44l.28-1.56a.35.35,0,0,1,.64-.09l.3.52a2.13,2.13,0,0,1,.28,1.43"/><path class="cls-1" d="M78,16.77l-.17,1.58a.35.35,0,0,1-.63.13L76.81,18a2.06,2.06,0,0,1-.38-1.41L76.6,15a.35.35,0,0,1,.63-.13l.35.49A2.11,2.11,0,0,1,78,16.77"/><path class="cls-1" d="M76,14.48l0,1.58a.35.35,0,0,1-.62.18l-.38-.46a2.09,2.09,0,0,1-.47-1.39l.06-1.58a.35.35,0,0,1,.62-.18l.37.47A2,2,0,0,1,76,14.48"/><path class="cls-1" d="M73.8,12.34l.06,1.58a.35.35,0,0,1-.61.22l-.41-.44a2.07,2.07,0,0,1-.56-1.34l-.06-1.59a.35.35,0,0,1,.61-.22l.41.44a2,2,0,0,1,.56,1.35"/><path class="cls-1" d="M71.51,10.35l.17,1.57a.35.35,0,0,1-.59.27l-.44-.41A2,2,0,0,1,70,10.47L69.82,8.9a.35.35,0,0,1,.59-.26l.44.41a2,2,0,0,1,.66,1.3"/><path class="cls-1" d="M69.08,8.53l.28,1.55a.35.35,0,0,1-.57.31L68.32,10a2.12,2.12,0,0,1-.75-1.25L67.3,7.2a.35.35,0,0,1,.57-.31l.47.38a2.08,2.08,0,0,1,.74,1.26"/><path class="cls-1" d="M66.54,6.88l.38,1.53a.35.35,0,0,1-.55.34l-.49-.34a2.07,2.07,0,0,1-.83-1.2l-.39-1.54a.35.35,0,0,1,.55-.34l.49.34a2.14,2.14,0,0,1,.84,1.21"/><path class="cls-1" d="M63.88,5.41l.49,1.5a.35.35,0,0,1-.53.38L63.33,7a2,2,0,0,1-.91-1.14l-.49-1.5A.34.34,0,0,1,62.45,4l.51.31a2.08,2.08,0,0,1,.92,1.14"/><path class="cls-1" d="M61.12,4.13l.6,1.46a.35.35,0,0,1-.5.42l-.53-.27a2,2,0,0,1-1-1.08L59.11,3.2a.35.35,0,0,1,.49-.42l.54.28a2,2,0,0,1,1,1.07"/><path class="cls-1" d="M58.29,3,59,4.47a.35.35,0,0,1-.46.45L58,4.68a2.13,2.13,0,0,1-1.07-1l-.69-1.42a.35.35,0,0,1,.46-.45l.56.23a2.15,2.15,0,0,1,1.06,1"/><path class="cls-1" d="M55.39,2.16l.79,1.37a.35.35,0,0,1-.43.48l-.57-.2a2,2,0,0,1-1.13-.92l-.79-1.37A.35.35,0,0,1,53.69,1l.56.2a2,2,0,0,1,1.14.92"/><path class="cls-1" d="M52.43,1.48l.88,1.31a.35.35,0,0,1-.4.51l-.57-.15a2.14,2.14,0,0,1-1.2-.85L50.26,1a.35.35,0,0,1,.39-.51l.58.16a2.08,2.08,0,0,1,1.2.84"/><path class="cls-1" d="M49.43,1l1,1.24a.35.35,0,0,1-.36.54l-.59-.12a2.06,2.06,0,0,1-1.25-.75l-1-1.25a.35.35,0,0,1,.36-.54l.59.12A2.08,2.08,0,0,1,49.43,1"/><path class="cls-1" d="M46.4.75l1.06,1.17a.35.35,0,0,1-.32.56l-.59-.07a2.16,2.16,0,0,1-1.31-.67L44.19.56A.35.35,0,0,1,44.51,0l.59.08a2.06,2.06,0,0,1,1.3.67"/><path class="cls-1" d="M43.37.7l1.14,1.1a.35.35,0,0,1-.29.58l-.59,0a2.07,2.07,0,0,1-1.35-.57L41.14.67a.35.35,0,0,1,.29-.58l.59,0A2.08,2.08,0,0,1,43.37.7"/><path class="cls-1" d="M40.34.86l1.21,1a.35.35,0,0,1-.24.6h-.6A2.06,2.06,0,0,1,39.33,2L38.12,1a.34.34,0,0,1,.23-.6H39a2.1,2.1,0,0,1,1.39.48"/><path class="cls-1" d="M37.32,1.23l1.28.93a.35.35,0,0,1-.19.62l-.6.05a2.12,2.12,0,0,1-1.41-.39l-1.28-.93a.34.34,0,0,1,.2-.61l.59-.05a2.06,2.06,0,0,1,1.41.38"/><path class="cls-1" d="M34.34,1.81l1.34.84a.35.35,0,0,1-.15.63l-.59.09a2.07,2.07,0,0,1-1.44-.29l-1.34-.83a.35.35,0,0,1,.16-.63l.59-.09a2.09,2.09,0,0,1,1.43.28"/><path class="cls-1" d="M31.41,2.6l1.4.74A.35.35,0,0,1,32.7,4l-.59.14a2.13,2.13,0,0,1-1.45-.19l-1.4-.74a.35.35,0,0,1,.12-.64L30,2.42a2.07,2.07,0,0,1,1.45.18"/><path class="cls-1" d="M28.54,3.59,30,4.23a.36.36,0,0,1-.07.65l-.58.17A2.06,2.06,0,0,1,27.89,5l-1.45-.64a.35.35,0,0,1,.07-.65l.57-.17a2.09,2.09,0,0,1,1.46.08"/><path class="cls-1" d="M25.75,4.78l1.48.54a.35.35,0,0,1,0,.65l-.56.21a2,2,0,0,1-1.46,0L23.7,5.66a.35.35,0,0,1,0-.65l.56-.21a2.1,2.1,0,0,1,1.46,0"/><path class="cls-1" d="M23,6.16l1.52.44a.35.35,0,0,1,0,.65L24,7.5a2.14,2.14,0,0,1-1.45.12l-1.52-.44a.35.35,0,0,1,0-.64l.55-.26A2.14,2.14,0,0,1,23,6.16"/><path class="cls-1" d="M20.44,7.73,22,8.06a.35.35,0,0,1,.07.64L21.54,9a2.1,2.1,0,0,1-1.45.22l-1.55-.33a.35.35,0,0,1-.07-.64L19,8a2.08,2.08,0,0,1,1.44-.22"/><path class="cls-1" d="M18,9.47l1.56.22a.35.35,0,0,1,.12.64l-.51.32a2.06,2.06,0,0,1-1.42.33l-1.57-.22a.35.35,0,0,1-.11-.64l.5-.33A2.14,2.14,0,0,1,18,9.47"/><path class="cls-1" d="M15.6,11.39l1.58.11a.34.34,0,0,1,.16.62l-.49.36a2,2,0,0,1-1.39.42l-1.58-.11a.35.35,0,0,1-.16-.62l.48-.37a2.08,2.08,0,0,1,1.4-.41"/><path class="cls-1" d="M13.38,13.45H15a.35.35,0,0,1,.2.62l-.45.39a2.07,2.07,0,0,1-1.37.52H11.76a.35.35,0,0,1-.2-.61L12,14a2.12,2.12,0,0,1,1.37-.52"/><path class="cls-1" d="M11.31,15.68l1.58-.11a.35.35,0,0,1,.25.6l-.43.42a2.06,2.06,0,0,1-1.33.61l-1.58.11a.35.35,0,0,1-.24-.6l.43-.42a2.06,2.06,0,0,1,1.32-.61"/><path class="cls-1" d="M9.41,18,11,17.82a.35.35,0,0,1,.29.58l-.4.45a2.05,2.05,0,0,1-1.28.7L8,19.77a.35.35,0,0,1-.29-.58l.39-.45A2.12,2.12,0,0,1,9.41,18"/><path class="cls-1" d="M7.67,20.53l1.54-.33a.35.35,0,0,1,.33.56l-.36.47A2.09,2.09,0,0,1,8,22l-1.55.33a.35.35,0,0,1-.33-.55l.37-.48a2.06,2.06,0,0,1,1.23-.79"/><path class="cls-1" d="M6.1,23.13l1.53-.44a.35.35,0,0,1,.36.54l-.33.5a2.1,2.1,0,0,1-1.17.88L5,25a.35.35,0,0,1-.37-.53L4.93,24a2.16,2.16,0,0,1,1.17-.87"/><path class="cls-1" d="M4.73,25.83l1.49-.53a.35.35,0,0,1,.4.5l-.3.53a2.07,2.07,0,0,1-1.11,1l-1.48.54a.35.35,0,0,1-.4-.51l.29-.52a2.08,2.08,0,0,1,1.11-1"/><path class="cls-1" d="M3.55,28.63,5,28a.35.35,0,0,1,.44.48L5.17,29a2.09,2.09,0,0,1-1,1l-1.44.64a.35.35,0,0,1-.44-.48l.26-.54a2.09,2.09,0,0,1,1-1"/><path class="cls-1" d="M2.56,31.5,4,30.76a.35.35,0,0,1,.47.45l-.22.56a2.11,2.11,0,0,1-1,1.09l-1.39.75a.35.35,0,0,1-.47-.45l.22-.56a2.08,2.08,0,0,1,1-1.1"/><path class="cls-1" d="M1.78,34.43l1.34-.84a.35.35,0,0,1,.5.42l-.18.57a2.12,2.12,0,0,1-.88,1.17l-1.35.83a.34.34,0,0,1-.49-.41l.17-.57a2.13,2.13,0,0,1,.89-1.17"/><path class="cls-1" d="M1.2,37.41l1.28-.93a.35.35,0,0,1,.53.38l-.14.59a2.13,2.13,0,0,1-.8,1.22L.79,39.6a.35.35,0,0,1-.53-.38l.14-.58a2.15,2.15,0,0,1,.8-1.23"/><path class="cls-1" d="M.83,40.42l1.22-1a.34.34,0,0,1,.54.34l-.09.59a2.08,2.08,0,0,1-.71,1.28l-1.22,1A.34.34,0,0,1,0,42.29l.09-.59a2.08,2.08,0,0,1,.71-1.28"/><path class="cls-1" d="M.68,43.46l1.14-1.1a.35.35,0,0,1,.57.3l-.05.6a2.11,2.11,0,0,1-.63,1.32L.57,45.68a.35.35,0,0,1-.57-.3l.06-.6a2,2,0,0,1,.62-1.32"/><path class="cls-1" d="M.74,46.49l1.05-1.17a.35.35,0,0,1,.6.26l0,.6a2,2,0,0,1-.53,1.36L.78,48.71a.35.35,0,0,1-.59-.26l0-.6a2,2,0,0,1,.53-1.36"/><path class="cls-1" d="M1,49.51l1-1.24a.34.34,0,0,1,.6.22l0,.6a2.09,2.09,0,0,1-.44,1.39l-1,1.25a.35.35,0,0,1-.61-.22l0-.6A2.1,2.1,0,0,1,1,49.51"/><path class="cls-1" d="M1.48,52.51l.89-1.31a.35.35,0,0,1,.62.18l.07.59a2.12,2.12,0,0,1-.33,1.42l-.89,1.32a.35.35,0,0,1-.62-.18l-.07-.6a2.09,2.09,0,0,1,.33-1.42"/><path class="cls-1" d="M2.17,55.47,3,54.1a.35.35,0,0,1,.63.13l.11.59a2.05,2.05,0,0,1-.23,1.44l-.79,1.37A.35.35,0,0,1,2,57.5l-.11-.59a2.11,2.11,0,0,1,.24-1.44"/><path class="cls-1" d="M3.06,58.37,3.75,57a.35.35,0,0,1,.64.09l.15.58a2,2,0,0,1-.13,1.45l-.69,1.42a.35.35,0,0,1-.64-.08l-.16-.58a2.1,2.1,0,0,1,.14-1.46"/><path class="cls-1" d="M4.15,61.2l.59-1.46a.35.35,0,0,1,.65,0l.19.57a2,2,0,0,1,0,1.46L5,63.27a.35.35,0,0,1-.65,0l-.19-.57a2,2,0,0,1,0-1.46"/><path class="cls-1" d="M5.43,64l.49-1.5a.35.35,0,0,1,.65,0L6.8,63a2,2,0,0,1,.07,1.46L6.39,66a.35.35,0,0,1-.65,0l-.23-.55A2.1,2.1,0,0,1,5.43,64"/><path class="cls-1" d="M6.91,66.6l.38-1.53a.35.35,0,0,1,.65,0l.27.54A2.09,2.09,0,0,1,8.38,67L8,68.54a.35.35,0,0,1-.65,0l-.27-.54a2.09,2.09,0,0,1-.17-1.45"/><path class="cls-1" d="M8.56,69.15l.28-1.56a.35.35,0,0,1,.64-.09l.31.51a2.09,2.09,0,0,1,.27,1.44L9.79,71a.35.35,0,0,1-.64.09l-.31-.52a2.13,2.13,0,0,1-.28-1.43"/><path class="cls-1" d="M10.39,71.57,10.56,70a.35.35,0,0,1,.63-.14l.35.49a2.11,2.11,0,0,1,.37,1.41l-.17,1.58a.35.35,0,0,1-.63.13L10.77,73a2.12,2.12,0,0,1-.38-1.41"/><path class="cls-1" d="M12.39,73.86l.06-1.58a.35.35,0,0,1,.62-.18l.37.47A2,2,0,0,1,13.91,74l-.05,1.58a.35.35,0,0,1-.62.18l-.38-.47a2.07,2.07,0,0,1-.47-1.38"/><path class="cls-1" d="M14.54,76l-.06-1.58a.35.35,0,0,1,.61-.22l.41.44A2.08,2.08,0,0,1,16.07,76l.05,1.59a.35.35,0,0,1-.61.22l-.41-.44A2.15,2.15,0,0,1,14.54,76"/><path class="cls-1" d="M16.83,78l-.16-1.57a.35.35,0,0,1,.59-.27l.44.41a2.08,2.08,0,0,1,.65,1.31l.17,1.57a.35.35,0,0,1-.59.27l-.44-.42a2.07,2.07,0,0,1-.66-1.3"/><path class="cls-1" d="M19.26,79.81,19,78.26a.36.36,0,0,1,.58-.31l.46.38a2.09,2.09,0,0,1,.75,1.26L21,81.14a.35.35,0,0,1-.57.31L20,81.07a2,2,0,0,1-.75-1.26"/><path class="cls-1" d="M21.81,81.46l-.39-1.53a.35.35,0,0,1,.55-.34l.49.34a2.05,2.05,0,0,1,.83,1.2l.39,1.54a.35.35,0,0,1-.55.34l-.49-.34a2.09,2.09,0,0,1-.83-1.21"/><path class="cls-1" d="M24.46,82.93,24,81.43a.35.35,0,0,1,.52-.38l.51.31a2,2,0,0,1,.91,1.14l.49,1.5a.35.35,0,0,1-.52.39l-.51-.32a2.08,2.08,0,0,1-.92-1.14"/><path class="cls-1" d="M27.22,84.21l-.6-1.46a.36.36,0,0,1,.5-.42l.53.27a2.08,2.08,0,0,1,1,1.08l.6,1.46a.36.36,0,0,1-.5.42l-.53-.27a2.08,2.08,0,0,1-1-1.08"/><path class="cls-1" d="M30.05,85.3l-.69-1.42a.35.35,0,0,1,.46-.45l.56.23a2.11,2.11,0,0,1,1.06,1l.69,1.42a.34.34,0,0,1-.46.45l-.55-.23a2.13,2.13,0,0,1-1.07-1"/><path class="cls-1" d="M33,86.18l-.79-1.37a.35.35,0,0,1,.43-.48l.56.2a2.09,2.09,0,0,1,1.14.92l.79,1.37a.35.35,0,0,1-.44.48l-.56-.19A2.09,2.09,0,0,1,33,86.18"/><path class="cls-1" d="M35.92,86.86,35,85.55a.35.35,0,0,1,.4-.51l.58.16A2.09,2.09,0,0,1,37.2,86l.88,1.31a.35.35,0,0,1-.39.51l-.58-.16a2,2,0,0,1-1.19-.84"/><path class="cls-1" d="M38.92,87.33l-1-1.24a.35.35,0,0,1,.36-.54l.59.12a2.11,2.11,0,0,1,1.25.75l1,1.25a.35.35,0,0,1-.36.54l-.58-.12a2,2,0,0,1-1.25-.76"/><path class="cls-1" d="M41.94,87.6l-1.06-1.18a.35.35,0,0,1,.32-.56l.6.07a2.13,2.13,0,0,1,1.3.67l1.06,1.18a.35.35,0,0,1-.33.56l-.59-.08a2.1,2.1,0,0,1-1.3-.66"/><path class="cls-1" d="M45,87.65l-1.14-1.11a.35.35,0,0,1,.28-.58l.6,0a2.12,2.12,0,0,1,1.34.57l1.14,1.1a.35.35,0,0,1-.28.58l-.6,0A2.1,2.1,0,0,1,45,87.65"/><path class="cls-1" d="M48,87.48l-1.21-1a.34.34,0,0,1,.23-.59h.61a2.09,2.09,0,0,1,1.38.48l1.21,1A.35.35,0,0,1,50,88h-.6A2.06,2.06,0,0,1,48,87.48"/><path class="cls-1" d="M51,87.11l-1.28-.93a.35.35,0,0,1,.2-.61l.6,0A2.06,2.06,0,0,1,52,85.9l1.28.93a.35.35,0,0,1-.2.61l-.6.06A2.12,2.12,0,0,1,51,87.11"/><path class="cls-1" d="M54,86.53l-1.34-.84a.35.35,0,0,1,.15-.63l.6-.09a2,2,0,0,1,1.43.29l1.34.83a.35.35,0,0,1-.15.63l-.6.09A2.09,2.09,0,0,1,54,86.53"/><path class="cls-1" d="M56.93,85.74,55.54,85a.35.35,0,0,1,.11-.64l.58-.14a2.13,2.13,0,0,1,1.45.19l1.4.74a.35.35,0,0,1-.11.64l-.59.13a2.07,2.07,0,0,1-1.45-.18"/><path class="cls-1" d="M59.8,84.75l-1.44-.65a.35.35,0,0,1,.06-.64l.58-.17a2.1,2.1,0,0,1,1.46.08L61.9,84a.36.36,0,0,1-.06.65l-.58.17a2.1,2.1,0,0,1-1.46-.08"/><path class="cls-1" d="M62.6,83.56,61.11,83a.35.35,0,0,1,0-.65l.56-.21a2.1,2.1,0,0,1,1.46,0l1.49.54a.35.35,0,0,1,0,.65l-.56.21a2.1,2.1,0,0,1-1.46,0"/><path class="cls-1" d="M65.3,82.18l-1.52-.44a.35.35,0,0,1,0-.65l.55-.25a2.16,2.16,0,0,1,1.46-.12l1.52.44a.35.35,0,0,1,0,.65l-.55.25a2.08,2.08,0,0,1-1.45.12"/><path class="cls-1" d="M67.9,80.61l-1.55-.33a.35.35,0,0,1-.07-.64l.53-.29a2.08,2.08,0,0,1,1.44-.22l1.55.33a.35.35,0,0,1,.07.64l-.53.29a2.08,2.08,0,0,1-1.44.22"/><path class="cls-1" d="M70.39,78.87l-1.57-.22A.35.35,0,0,1,68.7,78l.51-.32a2.06,2.06,0,0,1,1.42-.33l1.57.22a.35.35,0,0,1,.12.64l-.51.33a2.06,2.06,0,0,1-1.42.32"/><path class="cls-1" d="M72.74,77l-1.57-.11a.35.35,0,0,1-.16-.63l.48-.36a2,2,0,0,1,1.4-.42l1.58.11a.35.35,0,0,1,.15.63l-.48.36a2.15,2.15,0,0,1-1.4.42"/><polygon class="cls-3" points="40.1 9.94 42.62 8.13 41.65 5.16 44.15 6.99 46.68 5.15 45.7 8.1 48.24 9.93 45.13 9.91 44.18 12.89 43.23 9.93 40.1 9.94"/><polygon class="cls-3" points="27.31 14.11 28.95 11.47 26.91 9.09 29.92 9.83 31.55 7.16 31.78 10.26 34.83 10.98 31.95 12.15 32.21 15.27 30.2 12.9 27.31 14.11"/><polygon class="cls-3" points="17.09 22.84 17.59 19.78 14.8 18.37 17.87 17.9 18.35 14.81 19.75 17.58 22.83 17.08 20.63 19.26 22.06 22.05 19.3 20.63 17.09 22.84"/><polygon class="cls-3" points="10.99 34.83 10.28 31.81 7.16 31.57 9.81 29.96 9.08 26.92 11.43 28.95 14.09 27.31 12.89 30.17 15.27 32.2 12.18 31.94 10.99 34.83"/><polygon class="cls-3" points="9.94 48.24 8.13 45.72 5.16 46.69 6.99 44.19 5.15 41.67 8.09 42.64 9.93 40.1 9.91 43.21 12.89 44.16 9.93 45.11 9.94 48.24"/><polygon class="cls-3" points="14.11 61.03 11.47 59.39 9.09 61.43 9.83 58.42 7.16 56.79 10.25 56.56 10.98 53.52 12.15 56.39 15.27 56.14 12.9 58.14 14.11 61.03"/><polygon class="cls-3" points="22.84 71.25 19.78 70.75 18.37 73.54 17.9 70.47 14.81 69.99 17.58 68.6 17.08 65.51 19.27 67.71 22.05 66.29 20.63 69.04 22.84 71.25"/><polygon class="cls-3" points="34.83 77.35 31.81 78.06 31.57 81.18 29.96 78.53 26.92 79.26 28.95 76.91 27.31 74.25 30.17 75.45 32.2 73.07 31.94 76.16 34.83 77.35"/><polygon class="cls-3" points="48.24 78.4 45.72 80.21 46.69 83.18 44.19 81.35 41.67 83.19 42.64 80.25 40.1 78.42 43.21 78.43 44.17 75.45 45.11 78.41 48.24 78.4"/><polygon class="cls-3" points="61.03 74.24 59.39 76.88 61.43 79.25 58.42 78.51 56.79 81.18 56.56 78.09 53.52 77.36 56.39 76.19 56.14 73.07 58.14 75.44 61.03 74.24"/><polygon class="cls-3" points="71.25 65.5 70.75 68.56 73.54 69.97 70.47 70.44 69.99 73.54 68.6 70.76 65.51 71.26 67.71 69.08 66.29 66.29 69.04 67.72 71.25 65.5"/><polygon class="cls-3" points="77.35 53.51 78.06 56.53 81.18 56.77 78.53 58.38 79.26 61.42 76.91 59.39 74.25 61.03 75.45 58.17 73.07 56.15 76.16 56.41 77.35 53.51"/><polygon class="cls-3" points="78.4 40.1 80.21 42.62 83.18 41.65 81.35 44.15 83.19 46.68 80.25 45.7 78.42 48.24 78.43 45.14 75.45 44.18 78.41 43.23 78.4 40.1"/><polygon class="cls-3" points="74.24 27.31 76.88 28.95 79.25 26.91 78.51 29.92 81.18 31.55 78.09 31.78 77.36 34.83 76.19 31.95 73.07 32.21 75.44 30.2 74.24 27.31"/><polygon class="cls-3" points="65.5 17.09 68.56 17.59 69.97 14.8 70.44 17.87 73.54 18.35 70.77 19.74 71.26 22.83 69.08 20.63 66.29 22.06 67.72 19.3 65.5 17.09"/><polygon class="cls-3" points="53.51 10.99 56.53 10.28 56.77 7.16 58.38 9.81 61.42 9.08 59.39 11.43 61.03 14.09 58.17 12.89 56.15 15.27 56.41 12.18 53.51 10.99"/><path class="cls-1" d="M44.17,73.69A29.52,29.52,0,1,1,73.69,44.17,29.55,29.55,0,0,1,44.17,73.69m0-58.17A28.65,28.65,0,1,0,72.82,44.17,28.68,28.68,0,0,0,44.17,15.52"/></g></g></svg>